<svg xmlns="http://www.w3.org/2000/svg" viewBox="46.4 -740.9 8962.4 772.9" fill="#fff" role="img" aria-label="made make material"><path d="M66.3995361328125 0.0V-500.0H155.081298828125L159.22802734375 -431.15350341796875Q182.51470947265625 -470.7200927734375 218.58468627929688 -491.36004638671875Q254.6546630859375 -512.0 301.64788818359375 -512.0Q361.5079345703125 -512.0 403.64788818359375 -484.646728515625Q445.787841796875 -457.29345703125 464.787841796875 -400.5869140625Q486.64788818359375 -454.58013916015625 526.8612060546875 -483.2900695800781Q567.0745239257812 -512.0 622.494384765625 -512.0Q707.3612060546875 -512.0 755.2844543457031 -456.28668212890625Q803.2077026367188 -400.5733642578125 802.494384765625 -286.0V0.0H708.092529296875V-256.0Q708.092529296875 -323.5191650390625 693.7460327148438 -359.4954528808594Q679.3995361328125 -395.47174072265625 655.1297912597656 -409.3949890136719Q630.8600463867188 -423.3182373046875 599.0203247070312 -423.60491943359375Q543.1873779296875 -424.17828369140625 512.4176330566406 -381.2821350097656Q481.64788818359375 -338.385986328125 481.64788818359375 -259.58013916015625V0.0H387.24603271484375V-256.0Q387.24603271484375 -323.5191650390625 372.8995361328125 -359.4954528808594Q358.55303955078125 -395.47174072265625 334.2832946777344 -409.3949890136719Q310.0135498046875 -423.3182373046875 278.173828125 -423.60491943359375Q222.34088134765625 -424.17828369140625 191.57113647460938 -381.2821350097656Q160.8013916015625 -338.385986328125 160.8013916015625 -259.58013916015625V0.0ZM1082.7883011190233 12.0Q993.8326551373347 12.0 944.3326551373347 -28.26108850457782Q894.8326551373347 -68.52217700915564 894.8326551373347 -141.0Q894.8326551373347 -217.86693794506613 946.2439471007121 -258.6280264496439Q997.6552390640895 -299.3891149542218 1089.9556459816888 -299.3891149542218H1223.620956256358Q1218.187487283825 -363.1431332655137 1190.4435401831129 -395.7368769074262Q1162.699593082401 -428.33062054933873 1107.6008138351983 -428.33062054933873Q1068.812512716175 -428.33062054933873 1040.4627161749745 -412.24191251271617Q1012.1129196337741 -396.1532044760936 993.0685656154628 -362.45361139369277L909.4435401831129 -394.09877924720246Q927.0987792472024 -428.187487283825 953.8376907426245 -454.77115971515764Q980.5766022380468 -481.3548321464903 1018.5937436419124 -496.6774160732451Q1056.610885045778 -512.0 1107.6008138351983 -512.0Q1178.9012207527976 -512.0 1226.007070193286 -484.0443540183113Q1273.1129196337743 -456.08870803662256 1296.307477110885 -402.8054425228891Q1319.502034587996 -349.52217700915566 1319.0242115971516 -272.30040691759916L1317.5907426246185 0.0H1230.0987792472024L1226.5322482197355 -64.26612410986775Q1205.4435401831129 -27.65523906408952 1169.115920651068 -7.827619532044761Q1132.7883011190233 12.0 1082.7883011190233 12.0ZM1091.2116988809767 -69.28026449643947Q1131.566531027467 -69.28026449643947 1162.0050356052898 -86.63006103763988Q1192.4435401831129 -103.97985757884028 1209.0100712105798 -135.29033570701932Q1225.5766022380467 -166.60081383519838 1225.5766022380467 -208.26612410986775V-223.84272634791455H1116.1129196337743Q1047.4576805696847 -223.84272634791455 1019.063530010173 -202.59877924720246Q990.6693794506613 -181.35483214649034 990.6693794506613 -142.9112919633774Q990.6693794506613 -108.37904374364192 1017.1965920651069 -88.82965412004069Q1043.7238046795524 -69.28026449643947 1091.2116988809767 -69.28026449643947ZM1636.8329467773438 12.0Q1569.3995361328125 12.0 1518.5428771972656 -20.783294677734375Q1467.6862182617188 -53.56658935546875 1439.2595825195312 -112.92324829101562Q1410.8329467773438 -172.2799072265625 1410.8329467773438 -250.0Q1410.8329467773438 -328.7200927734375 1439.2595825195312 -387.5767517089844Q1467.6862182617188 -446.43341064453125 1518.5428771972656 -479.2167053222656Q1569.3995361328125 -512.0 1636.8329467773438 -512.0Q1690.1060791015625 -512.0 1732.1658935546875 -487.7968444824219Q1774.2257080078125 -463.59368896484375 1800.505615234375 -420.46728515625V-700.0H1894.907470703125V0.0H1805.2257080078125L1801.65234375 -80.96612548828125Q1775.3724365234375 -37.266357421875 1733.0259399414062 -12.6331787109375Q1690.679443359375 12.0 1636.8329467773438 12.0ZM1659.1535034179688 -74.1083984375Q1699.9864501953125 -74.1083984375 1731.5394897460938 -95.87814331054688Q1763.092529296875 -117.64788818359375 1781.3690490722656 -156.47744750976562Q1799.6455688476562 -195.3070068359375 1800.505615234375 -244.69976806640625V-254.5869140625Q1799.6455688476562 -304.6929931640625 1781.3690490722656 -343.37921142578125Q1763.092529296875 -382.0654296875 1731.3961486816406 -403.8351745605469Q1699.6997680664062 -425.60491943359375 1658.1535034179688 -425.60491943359375Q1614.1806030273438 -425.60491943359375 1580.0575866699219 -403.2618103027344Q1545.9345703125 -380.918701171875 1526.7314147949219 -341.2290954589844Q1507.5282592773438 -301.53948974609375 1507.5282592773438 -250.0Q1507.5282592773438 -198.46051025390625 1527.2314147949219 -158.77090454101562Q1546.9345703125 -119.081298828125 1581.0575866699219 -96.5948486328125Q1615.1806030273438 -74.1083984375 1659.1535034179688 -74.1083984375ZM2248.1774160732452 12.0Q2175.2217700915567 12.0 2119.00503560529 -21.5Q2062.7883011190233 -55.0 2030.810478128179 -114.0Q1998.8326551373348 -173.0 1998.8326551373348 -250.0Q1998.8326551373348 -327.0 2031.0272126144457 -386.0Q2063.2217700915567 -445.0 2119.6330620549343 -478.5Q2176.0443540183114 -512.0 2248.9112919633776 -512.0Q2317.5221770091557 -512.0 2369.889114954222 -477.5Q2422.256052899288 -443.0 2451.8397253306207 -379.6330620549339Q2481.4233977619533 -316.26612410986775 2481.4233977619533 -229.62095625635808H2095.5806714140385Q2100.5806714140385 -156.122990844354 2145.1078840284845 -114.61291963377415Q2189.63509664293 -73.1028484231943 2254.866937945066 -73.1028484231943Q2304.743947100712 -73.1028484231943 2338.315513733469 -96.34679552390641Q2371.8870803662257 -119.59074262461851 2390.5866734486267 -156.4677517802645L2473.078636826043 -118.30040691759919Q2453.122990844354 -78.91129196337742 2421.189521871821 -49.45564598168871Q2389.256052899288 -20.0 2345.866937945066 -4.0Q2302.4778229908443 12.0 2248.1774160732452 12.0ZM2102.058494404883 -305.1673448626653H2379.1532044760934Q2376.1532044760934 -345.0443540183113 2357.5866734486262 -372.6602746693794Q2339.0201424211596 -400.2761953204476 2310.276195320447 -415.0201424211597Q2281.5322482197353 -429.7640895218718 2247.0 -429.7640895218718Q2213.4677517802647 -429.7640895218718 2181.396185147508 -415.25905391658193Q2149.324618514751 -400.754018311292 2127.6915564598166 -372.87700915564596Q2106.058494404883 -345.0 2102.058494404883 -305.1673448626653ZM2819.3995361328125 0.0V-500.0H2908.081298828125L2912.22802734375 -431.15350341796875Q2935.5147094726562 -470.7200927734375 2971.584686279297 -491.36004638671875Q3007.6546630859375 -512.0 3054.6478881835938 -512.0Q3114.5079345703125 -512.0 3156.6478881835938 -484.646728515625Q3198.787841796875 -457.29345703125 3217.787841796875 -400.5869140625Q3239.6478881835938 -454.58013916015625 3279.8612060546875 -483.2900695800781Q3320.0745239257812 -512.0 3375.494384765625 -512.0Q3460.3612060546875 -512.0 3508.284454345703 -456.28668212890625Q3556.2077026367188 -400.5733642578125 3555.494384765625 -286.0V0.0H3461.092529296875V-256.0Q3461.092529296875 -323.5191650390625 3446.7460327148438 -359.4954528808594Q3432.3995361328125 -395.47174072265625 3408.1297912597656 -409.3949890136719Q3383.8600463867188 -423.3182373046875 3352.0203247070312 -423.60491943359375Q3296.1873779296875 -424.17828369140625 3265.4176330566406 -381.2821350097656Q3234.6478881835938 -338.385986328125 3234.6478881835938 -259.58013916015625V0.0H3140.2460327148438V-256.0Q3140.2460327148438 -323.5191650390625 3125.8995361328125 -359.4954528808594Q3111.5530395507812 -395.47174072265625 3087.2832946777344 -409.3949890136719Q3063.0135498046875 -423.3182373046875 3031.173828125 -423.60491943359375Q2975.3408813476562 -424.17828369140625 2944.5711364746094 -381.2821350097656Q2913.8013916015625 -338.385986328125 2913.8013916015625 -259.58013916015625V0.0ZM3835.7883011190233 12.0Q3746.8326551373348 12.0 3697.3326551373348 -28.26108850457782Q3647.8326551373348 -68.52217700915564 3647.8326551373348 -141.0Q3647.8326551373348 -217.86693794506613 3699.243947100712 -258.6280264496439Q3750.6552390640895 -299.3891149542218 3842.9556459816886 -299.3891149542218H3976.620956256358Q3971.1874872838252 -363.1431332655137 3943.4435401831133 -395.7368769074262Q3915.699593082401 -428.33062054933873 3860.6008138351986 -428.33062054933873Q3821.8125127161748 -428.33062054933873 3793.4627161749745 -412.24191251271617Q3765.1129196337743 -396.1532044760936 3746.068565615463 -362.45361139369277L3662.443540183113 -394.09877924720246Q3680.0987792472024 -428.187487283825 3706.8376907426245 -454.77115971515764Q3733.5766022380467 -481.3548321464903 3771.5937436419126 -496.6774160732451Q3809.610885045778 -512.0 3860.6008138351986 -512.0Q3931.9012207527976 -512.0 3979.007070193286 -484.0443540183113Q4026.1129196337743 -456.08870803662256 4049.307477110885 -402.8054425228891Q4072.5020345879957 -349.52217700915566 4072.0242115971514 -272.30040691759916L4070.5907426246185 0.0H3983.0987792472024L3979.5322482197353 -64.26612410986775Q3958.443540183113 -27.65523906408952 3922.1159206510683 -7.827619532044761Q3885.7883011190233 12.0 3835.7883011190233 12.0ZM3844.2116988809767 -69.28026449643947Q3884.566531027467 -69.28026449643947 3915.00503560529 -86.63006103763988Q3945.443540183113 -103.97985757884028 3962.0100712105796 -135.29033570701932Q3978.5766022380467 -166.60081383519838 3978.5766022380467 -208.26612410986775V-223.84272634791455H3869.1129196337743Q3800.4576805696847 -223.84272634791455 3772.063530010173 -202.59877924720246Q3743.6693794506614 -181.35483214649034 3743.6693794506614 -142.9112919633774Q3743.6693794506614 -108.37904374364192 3770.196592065107 -88.82965412004069Q3796.7238046795524 -69.28026449643947 3844.2116988809767 -69.28026449643947ZM4192.3995361328125 0.0V-700.0H4286.8013916015625V-284.66143798828125L4488.419860839844 -500.0H4604.261901855469L4417.541809082031 -296.83294677734375L4622.821716308594 0.0H4508.553039550781L4355.900695800781 -228.8916015625L4286.8013916015625 -154.79229736328125V0.0ZM4913.177416073245 12.0Q4840.221770091556 12.0 4784.00503560529 -21.5Q4727.788301119023 -55.0 4695.810478128179 -114.0Q4663.832655137335 -173.0 4663.832655137335 -250.0Q4663.832655137335 -327.0 4696.0272126144455 -386.0Q4728.221770091556 -445.0 4784.633062054934 -478.5Q4841.044354018311 -512.0 4913.911291963377 -512.0Q4982.522177009156 -512.0 5034.889114954221 -477.5Q5087.256052899288 -443.0 5116.839725330621 -379.6330620549339Q5146.423397761953 -316.26612410986775 5146.423397761953 -229.62095625635808H4760.580671414039Q4765.580671414039 -156.122990844354 4810.1078840284845 -114.61291963377415Q4854.63509664293 -73.1028484231943 4919.866937945066 -73.1028484231943Q4969.743947100712 -73.1028484231943 5003.315513733469 -96.34679552390641Q5036.887080366226 -119.59074262461851 5055.586673448626 -156.4677517802645L5138.078636826042 -118.30040691759919Q5118.122990844354 -78.91129196337742 5086.189521871821 -49.45564598168871Q5054.256052899288 -20.0 5010.866937945066 -4.0Q4967.477822990844 12.0 4913.177416073245 12.0ZM4767.058494404883 -305.1673448626653H5044.153204476093Q5041.153204476093 -345.0443540183113 5022.586673448626 -372.6602746693794Q5004.02014242116 -400.2761953204476 4975.276195320448 -415.0201424211597Q4946.532248219735 -429.7640895218718 4912.0 -429.7640895218718Q4878.467751780265 -429.7640895218718 4846.396185147508 -415.25905391658193Q4814.324618514751 -400.754018311292 4792.691556459817 -372.87700915564596Q4771.058494404883 -345.0 4767.058494404883 -305.1673448626653ZM5484.3995361328125 0.0V-500.0H5573.081298828125L5577.22802734375 -431.15350341796875Q5600.514709472656 -470.7200927734375 5636.584686279297 -491.36004638671875Q5672.6546630859375 -512.0 5719.647888183594 -512.0Q5779.5079345703125 -512.0 5821.647888183594 -484.646728515625Q5863.787841796875 -457.29345703125 5882.787841796875 -400.5869140625Q5904.647888183594 -454.58013916015625 5944.8612060546875 -483.2900695800781Q5985.074523925781 -512.0 6040.494384765625 -512.0Q6125.3612060546875 -512.0 6173.284454345703 -456.28668212890625Q6221.207702636719 -400.5733642578125 6220.494384765625 -286.0V0.0H6126.092529296875V-256.0Q6126.092529296875 -323.5191650390625 6111.746032714844 -359.4954528808594Q6097.3995361328125 -395.47174072265625 6073.129791259766 -409.3949890136719Q6048.860046386719 -423.3182373046875 6017.020324707031 -423.60491943359375Q5961.1873779296875 -424.17828369140625 5930.417633056641 -381.2821350097656Q5899.647888183594 -338.385986328125 5899.647888183594 -259.58013916015625V0.0H5805.246032714844V-256.0Q5805.246032714844 -323.5191650390625 5790.8995361328125 -359.4954528808594Q5776.553039550781 -395.47174072265625 5752.283294677734 -409.3949890136719Q5728.0135498046875 -423.3182373046875 5696.173828125 -423.60491943359375Q5640.340881347656 -424.17828369140625 5609.571136474609 -381.2821350097656Q5578.8013916015625 -338.385986328125 5578.8013916015625 -259.58013916015625V0.0ZM6500.788301119023 12.0Q6411.832655137335 12.0 6362.332655137335 -28.26108850457782Q6312.832655137335 -68.52217700915564 6312.832655137335 -141.0Q6312.832655137335 -217.86693794506613 6364.243947100713 -258.6280264496439Q6415.65523906409 -299.3891149542218 6507.955645981689 -299.3891149542218H6641.620956256358Q6636.187487283825 -363.1431332655137 6608.443540183112 -395.7368769074262Q6580.6995930824005 -428.33062054933873 6525.600813835198 -428.33062054933873Q6486.812512716175 -428.33062054933873 6458.462716174974 -412.24191251271617Q6430.112919633774 -396.1532044760936 6411.068565615463 -362.45361139369277L6327.443540183113 -394.09877924720246Q6345.098779247202 -428.187487283825 6371.8376907426245 -454.77115971515764Q6398.576602238047 -481.3548321464903 6436.593743641913 -496.6774160732451Q6474.610885045779 -512.0 6525.600813835198 -512.0Q6596.901220752798 -512.0 6644.0070701932855 -484.0443540183113Q6691.112919633774 -456.08870803662256 6714.307477110885 -402.8054425228891Q6737.502034587996 -349.52217700915566 6737.024211597151 -272.30040691759916L6735.5907426246185 0.0H6648.098779247202L6644.532248219735 -64.26612410986775Q6623.443540183113 -27.65523906408952 6587.115920651068 -7.827619532044761Q6550.788301119023 12.0 6500.788301119023 12.0ZM6509.211698880977 -69.28026449643947Q6549.566531027467 -69.28026449643947 6580.005035605291 -86.63006103763988Q6610.443540183113 -103.97985757884028 6627.01007121058 -135.29033570701932Q6643.576602238047 -166.60081383519838 6643.576602238047 -208.26612410986775V-223.84272634791455H6534.112919633774Q6465.457680569684 -223.84272634791455 6437.063530010173 -202.59877924720246Q6408.669379450661 -181.35483214649034 6408.669379450661 -142.9112919633774Q6408.669379450661 -108.37904374364192 6435.196592065107 -88.82965412004069Q6461.723804679553 -69.28026449643947 6509.211698880977 -69.28026449643947ZM7050.440185546875 12.0Q6974.559814453125 12.0 6933.8397216796875 -26.650115966796875Q6893.11962890625 -65.30023193359375 6893.11962890625 -136.6004638671875V-417.76519775390625H6808.1331787109375V-500.0H6893.11962890625V-656.0H6987.521484375V-500.0H7130.46728515625V-417.76519775390625H6987.521484375V-150.64788818359375Q6987.521484375 -114.08807373046875 7006.221252441406 -94.59823608398438Q7024.9210205078125 -75.1083984375 7059.614013671875 -75.1083984375Q7070.46728515625 -75.1083984375 7082.110626220703 -79.03842163085938Q7093.753967285156 -82.96844482421875 7111.4537353515625 -95.10162353515625L7146.7742919921875 -20.74041748046875Q7120.9210205078125 -3.59368896484375 7097.474060058594 4.203155517578125Q7074.027099609375 12.0 7050.440185546875 12.0ZM7462.177416073245 12.0Q7389.221770091556 12.0 7333.00503560529 -21.5Q7276.788301119023 -55.0 7244.810478128179 -114.0Q7212.832655137335 -173.0 7212.832655137335 -250.0Q7212.832655137335 -327.0 7245.0272126144455 -386.0Q7277.221770091556 -445.0 7333.633062054934 -478.5Q7390.044354018311 -512.0 7462.911291963377 -512.0Q7531.522177009156 -512.0 7583.889114954221 -477.5Q7636.256052899288 -443.0 7665.839725330621 -379.6330620549339Q7695.423397761953 -316.26612410986775 7695.423397761953 -229.62095625635808H7309.580671414039Q7314.580671414039 -156.122990844354 7359.1078840284845 -114.61291963377415Q7403.63509664293 -73.1028484231943 7468.866937945066 -73.1028484231943Q7518.743947100712 -73.1028484231943 7552.315513733469 -96.34679552390641Q7585.887080366226 -119.59074262461851 7604.586673448626 -156.4677517802645L7687.078636826042 -118.30040691759919Q7667.122990844354 -78.91129196337742 7635.189521871821 -49.45564598168871Q7603.256052899288 -20.0 7559.866937945066 -4.0Q7516.477822990844 12.0 7462.177416073245 12.0ZM7316.058494404883 -305.1673448626653H7593.153204476093Q7590.153204476093 -345.0443540183113 7571.586673448626 -372.6602746693794Q7553.02014242116 -400.2761953204476 7524.276195320448 -415.0201424211597Q7495.532248219735 -429.7640895218718 7461.0 -429.7640895218718Q7427.467751780265 -429.7640895218718 7395.396185147508 -415.25905391658193Q7363.324618514751 -400.754018311292 7341.691556459817 -372.87700915564596Q7320.058494404883 -345.0 7316.058494404883 -305.1673448626653ZM7789.3995361328125 0.0V-500.0H7883.8013916015625V-410.2799072265625Q7913.661437988281 -457.2799072265625 7961.518096923828 -479.63995361328125Q8009.374755859375 -502.0 8060.8013916015625 -502.0V-412.31146240234375Q8015.941345214844 -412.31146240234375 7975.441345214844 -398.8182373046875Q7934.941345214844 -385.32501220703125 7909.371368408203 -354.4153137207031Q7883.8013916015625 -323.505615234375 7883.8013916015625 -271.68621826171875V0.0ZM8144.11962890625 0.0V-500.0H8238.521484375V0.0ZM8192.033874511719 -606.4920654296875Q8169.153503417969 -606.4920654296875 8151.993225097656 -623.65234375Q8134.832946777344 -640.8126220703125 8134.832946777344 -663.6929931640625Q8134.832946777344 -687.5733642578125 8151.993225097656 -704.233642578125Q8169.153503417969 -720.8939208984375 8192.033874511719 -720.8939208984375Q8215.914245605469 -720.8939208984375 8232.574523925781 -704.233642578125Q8249.234802246094 -687.5733642578125 8249.234802246094 -663.6929931640625Q8249.234802246094 -640.8126220703125 8232.574523925781 -623.65234375Q8215.914245605469 -606.4920654296875 8192.033874511719 -606.4920654296875ZM8537.788301119024 12.0Q8448.832655137334 12.0 8399.332655137334 -28.26108850457782Q8349.832655137334 -68.52217700915564 8349.832655137334 -141.0Q8349.832655137334 -217.86693794506613 8401.243947100713 -258.6280264496439Q8452.65523906409 -299.3891149542218 8544.955645981689 -299.3891149542218H8678.620956256358Q8673.187487283825 -363.1431332655137 8645.443540183114 -395.7368769074262Q8617.699593082401 -428.33062054933873 8562.600813835199 -428.33062054933873Q8523.812512716175 -428.33062054933873 8495.462716174974 -412.24191251271617Q8467.112919633773 -396.1532044760936 8448.068565615464 -362.45361139369277L8364.443540183112 -394.09877924720246Q8382.098779247202 -428.187487283825 8408.837690742625 -454.77115971515764Q8435.576602238047 -481.3548321464903 8473.593743641912 -496.6774160732451Q8511.610885045779 -512.0 8562.600813835199 -512.0Q8633.901220752798 -512.0 8681.007070193285 -484.0443540183113Q8728.112919633773 -456.08870803662256 8751.307477110884 -402.8054425228891Q8774.502034587997 -349.52217700915566 8774.024211597152 -272.30040691759916L8772.59074262462 0.0H8685.098779247202L8681.532248219735 -64.26612410986775Q8660.443540183112 -27.65523906408952 8624.115920651067 -7.827619532044761Q8587.788301119024 12.0 8537.788301119024 12.0ZM8546.211698880976 -69.28026449643947Q8586.566531027467 -69.28026449643947 8617.005035605289 -86.63006103763988Q8647.443540183112 -103.97985757884028 8664.01007121058 -135.29033570701932Q8680.576602238047 -166.60081383519838 8680.576602238047 -208.26612410986775V-223.84272634791455H8571.112919633773Q8502.457680569685 -223.84272634791455 8474.063530010173 -202.59877924720246Q8445.669379450661 -181.35483214649034 8445.669379450661 -142.9112919633774Q8445.669379450661 -108.37904374364192 8472.196592065106 -88.82965412004069Q8498.723804679552 -69.28026449643947 8546.211698880976 -69.28026449643947ZM8894.399536132812 0.0V-700.0H8988.801391601562V0.0Z"/></svg>
